<?xml version="1.0" standalone="no"?><!DOCTYPE svg PUBLIC "-//W3C//DTD SVG 1.1//EN" "http://www.w3.org/Graphics/SVG/1.1/DTD/svg11.dtd"><svg t="1694029915077" class="icon" viewBox="0 0 1024 1024" version="1.1" xmlns="http://www.w3.org/2000/svg" p-id="2328" xmlns:xlink="http://www.w3.org/1999/xlink" width="32" height="32"><path d="M762.688 1007.936c-16.64 0-33.152-4.16-47.744-12.032l-203.968-109.824-203.904 109.824c-33.088 17.6-74.496 15.232-104.896-5.568-31.296-21.568-47.36-59.328-41.152-96.128l39.936-238.656L28.672 483.456C2.112 457.152-6.784 418.88 5.248 383.68 17.344 348.8 47.744 323.712 84.672 318.272l234.496-34.88 101.76-211.392c16.384-33.984 51.776-56 90.048-56 38.336 0 73.664 21.952 89.92 56l101.888 211.392 234.432 34.88c36.992 5.44 67.392 30.528 79.424 65.344 12.096 35.264 3.136 73.472-23.296 99.84l-172.416 172.096 40.064 238.656c6.208 36.864-9.984 74.624-41.216 96.064C802.88 1001.792 783.168 1007.936 762.688 1007.936" fill="#FDBC00" p-id="2329"></path></svg>