<?xml version="1.0" encoding="UTF-8"?><svg width="32" height="32" viewBox="0 0 48 48" fill="none" xmlns="http://www.w3.org/2000/svg"><path d="M7 27C7 22.5817 10.5817 19 15 19H33C37.4183 19 41 22.5817 41 27V35C41 37.2091 39.2091 39 37 39H11C8.79086 39 7 37.2091 7 35V27Z" fill="none" stroke="#ffffff" stroke-width="3" stroke-linecap="round" stroke-linejoin="round"/><path d="M34.0002 19V12C39 12 39 5 34.0002 5C29.0004 5 19.0004 5 14.0002 5C9.00006 5 8.99979 12 14.0002 12V19" stroke="#ffffff" stroke-width="3" stroke-linecap="round" stroke-linejoin="round"/><path d="M22 11L20 13" stroke="#ffffff" stroke-width="3" stroke-linecap="round" stroke-linejoin="round"/><path d="M28 11L26 13" stroke="#ffffff" stroke-width="3" stroke-linecap="round" stroke-linejoin="round"/><circle cx="24" cy="29" r="4" fill="none" stroke="#ffffff" stroke-width="3"/><path d="M15 39V43" stroke="#ffffff" stroke-width="3" stroke-linecap="round" stroke-linejoin="round"/><path d="M33 39V43" stroke="#ffffff" stroke-width="3" stroke-linecap="round" stroke-linejoin="round"/></svg>