<?xml version="1.0" encoding="UTF-8"?><svg width="32" height="32" viewBox="0 0 48 48" fill="none" xmlns="http://www.w3.org/2000/svg"><path d="M20 33L26 35C26 35 41 32 43 32C45 32 45 34 43 36C41 38 34 44 28 44C22 44 18 41 14 41C10 41 4 41 4 41" stroke="#ffffff" stroke-width="3" stroke-linecap="round" stroke-linejoin="round"/><path d="M4 29C6 27 10 24 14 24C18 24 27.5 28 29 30C30.5 32 26 35 26 35" stroke="#ffffff" stroke-width="3" stroke-linecap="round" stroke-linejoin="round"/><rect x="26" y="15" width="16" height="6" rx="3" fill="none" stroke="#ffffff" stroke-width="3"/><path d="M26 9L42 9" stroke="#ffffff" stroke-width="3" stroke-linecap="round"/></svg>