<?xml version="1.0" encoding="UTF-8"?><svg width="32" height="32" viewBox="0 0 48 48" fill="none" xmlns="http://www.w3.org/2000/svg"><path d="M10 28V35H18" stroke="#ffffff" stroke-width="3" stroke-linecap="round" stroke-linejoin="round"/><path d="M18 28H42V42H18V35V28Z" fill="none" stroke="#ffffff" stroke-width="3" stroke-linecap="round" stroke-linejoin="round"/><line x1="6" y1="13.5" x2="6" y2="12.5" stroke="#ffffff" stroke-width="3" stroke-linecap="round" stroke-linejoin="round"/><line x1="6" y1="20" x2="6" y2="19" stroke="#ffffff" stroke-width="3" stroke-linecap="round" stroke-linejoin="round"/><line x1="6" y1="7" x2="6" y2="6" stroke="#ffffff" stroke-width="3" stroke-linecap="round" stroke-linejoin="round"/><line x1="32" y1="13.5" x2="32" y2="12.5" stroke="#ffffff" stroke-width="3" stroke-linecap="round" stroke-linejoin="round"/><line x1="32" y1="20" x2="32" y2="19" stroke="#ffffff" stroke-width="3" stroke-linecap="round" stroke-linejoin="round"/><line x1="32" y1="7" x2="32" y2="6" stroke="#ffffff" stroke-width="3" stroke-linecap="round" stroke-linejoin="round"/><line x1="32" y1="20" x2="31" y2="20" stroke="#ffffff" stroke-width="3" stroke-linecap="round" stroke-linejoin="round"/><line x1="7" y1="20" x2="6" y2="20" stroke="#ffffff" stroke-width="3" stroke-linecap="round" stroke-linejoin="round"/><line x1="7" y1="6" x2="6" y2="6" stroke="#ffffff" stroke-width="3" stroke-linecap="round" stroke-linejoin="round"/><line x1="13" y1="6" x2="12" y2="6" stroke="#ffffff" stroke-width="3" stroke-linecap="round" stroke-linejoin="round"/><line x1="19.5" y1="6" x2="18.5" y2="6" stroke="#ffffff" stroke-width="3" stroke-linecap="round" stroke-linejoin="round"/><line x1="19.5" y1="20" x2="18.5" y2="20" stroke="#ffffff" stroke-width="3" stroke-linecap="round" stroke-linejoin="round"/><line x1="26" y1="6" x2="25" y2="6" stroke="#ffffff" stroke-width="3" stroke-linecap="round" stroke-linejoin="round"/><line x1="13" y1="20" x2="12" y2="20" stroke="#ffffff" stroke-width="3" stroke-linecap="round" stroke-linejoin="round"/><line x1="26" y1="20" x2="25" y2="20" stroke="#ffffff" stroke-width="3" stroke-linecap="round" stroke-linejoin="round"/><line x1="32" y1="6" x2="31" y2="6" stroke="#ffffff" stroke-width="3" stroke-linecap="round" stroke-linejoin="round"/></svg>