<?xml version="1.0" encoding="UTF-8"?><svg width="32" height="32" viewBox="0 0 48 48" fill="none" xmlns="http://www.w3.org/2000/svg"><path d="M12 6C12 4.89543 12.8954 4 14 4H34C35.1046 4 36 4.89543 36 6V30C36 31.1046 35.1046 32 34 32H14C12.8954 32 12 31.1046 12 30V6Z" fill="none" stroke="#ffffff" stroke-width="3" stroke-linejoin="round"/><circle cx="18" cy="26" r="2" fill="#ffffff"/><circle cx="30" cy="26" r="2" fill="#ffffff"/><path d="M12 20L36 20" stroke="#ffffff" stroke-width="3" stroke-linecap="round" stroke-linejoin="round"/><path d="M21 38H27" stroke="#ffffff" stroke-width="3" stroke-linecap="round" stroke-linejoin="round"/><path d="M18 44H30" stroke="#ffffff" stroke-width="3" stroke-linecap="round" stroke-linejoin="round"/><path d="M17 32L11 44" stroke="#ffffff" stroke-width="3" stroke-linecap="round"/><path d="M31 32L37 44" stroke="#ffffff" stroke-width="3" stroke-linecap="round"/><path d="M36 15V25" stroke="#ffffff" stroke-width="3" stroke-linecap="round" stroke-linejoin="round"/><path d="M12 15V25" stroke="#ffffff" stroke-width="3" stroke-linecap="round" stroke-linejoin="round"/></svg>