<?xml version="1.0" encoding="UTF-8"?><svg width="32" height="32" viewBox="0 0 48 48" fill="none" xmlns="http://www.w3.org/2000/svg"><path d="M23 40H7C5.34315 40 4 38.6569 4 37V11C4 9.34315 5.34315 8 7 8H41C42.6569 8 44 9.34315 44 11V25.8824" stroke="#ffffff" stroke-width="3" stroke-linecap="round" stroke-linejoin="round"/><path d="M4 11C4 9.34315 5.34315 8 7 8H41C42.6569 8 44 9.34315 44 11V20H4V11Z" fill="none" stroke="#ffffff" stroke-width="3"/><path d="M34 33L30 37L34 41" stroke="#ffffff" stroke-width="3" stroke-linecap="round" stroke-linejoin="round"/><path d="M40 33L44 37L40 41" stroke="#ffffff" stroke-width="3" stroke-linecap="round" stroke-linejoin="round"/><circle r="2" transform="matrix(-1.31134e-07 -1 -1 1.31134e-07 10 14)" fill="#ffffff"/><circle r="2" transform="matrix(-1.31134e-07 -1 -1 1.31134e-07 16 14)" fill="#ffffff"/></svg>