<?xml version="1.0" encoding="UTF-8"?><svg width="32" height="32" viewBox="0 0 48 48" fill="none" xmlns="http://www.w3.org/2000/svg"><path d="M42 4H6C4.89543 4 4 4.89543 4 6V42C4 43.1046 4.89543 44 6 44H42C43.1046 44 44 43.1046 44 42V6C44 4.89543 43.1046 4 42 4Z" stroke="#ffffff" stroke-width="3" stroke-linejoin="round"/><path d="M4 24H17" stroke="#ffffff" stroke-width="3" stroke-linecap="round" stroke-linejoin="round"/><path d="M31 24H44" stroke="#ffffff" stroke-width="3" stroke-linecap="round" stroke-linejoin="round"/><path d="M24 31C27.866 31 31 27.866 31 24C31 20.134 27.866 17 24 17C20.134 17 17 20.134 17 24C17 27.866 20.134 31 24 31Z" fill="none" stroke="#ffffff" stroke-width="3" stroke-linejoin="round"/></svg>