<?xml version="1.0" encoding="UTF-8"?><svg width="32" height="32" viewBox="0 0 48 48" fill="none" xmlns="http://www.w3.org/2000/svg"><path d="M18 24C18 17.3762 23.3762 12 30 12C36.6238 12 42 17.3762 42 24" fill="none"/><path d="M18 24C18 17.3762 23.3762 12 30 12C36.6238 12 42 17.3762 42 24" stroke="#ffffff" stroke-width="3" stroke-miterlimit="2" stroke-linecap="round" stroke-linejoin="round"/><path d="M12 4H4V36H12V4Z" stroke="#ffffff" stroke-width="3" stroke-miterlimit="2" stroke-linecap="round" stroke-linejoin="round"/><path d="M12 24H44" stroke="#ffffff" stroke-width="3" stroke-miterlimit="2" stroke-linecap="round" stroke-linejoin="round"/><path d="M18 24L20 28.5C22 33.5 21.9 38.9 20 44" stroke="#ffffff" stroke-width="3" stroke-miterlimit="2" stroke-linecap="round" stroke-linejoin="round"/><path d="M40.9997 24L38.9997 28.5C36.9996 33.5 37.0896 38.9 38.9996 44" stroke="#ffffff" stroke-width="3" stroke-miterlimit="2" stroke-linecap="round" stroke-linejoin="round"/><path d="M21.2197 32H37.7797" stroke="#ffffff" stroke-width="3" stroke-miterlimit="2" stroke-linecap="round" stroke-linejoin="round"/><path d="M21.6895 40H37.3195" stroke="#ffffff" stroke-width="3" stroke-miterlimit="2" stroke-linecap="round" stroke-linejoin="round"/><path d="M29.5 40V24" stroke="#ffffff" stroke-width="3" stroke-miterlimit="2" stroke-linecap="round" stroke-linejoin="round"/></svg>