<?xml version="1.0" standalone="no"?><!DOCTYPE svg PUBLIC "-//W3C//DTD SVG 1.1//EN" "http://www.w3.org/Graphics/SVG/1.1/DTD/svg11.dtd"><svg t="1694029897639" class="icon" viewBox="0 0 1024 1024" version="1.1" xmlns="http://www.w3.org/2000/svg" p-id="2174" xmlns:xlink="http://www.w3.org/1999/xlink" width="32" height="32"><path d="M762.88 1008c-16.576 0-33.152-4.096-47.744-12.032l-204.032-109.888-203.968 109.888c-32.96 17.6-74.432 15.232-104.832-5.632-31.36-21.632-47.424-59.264-41.216-96.128l39.936-238.656-172.352-172.16C2.176 457.152-6.784 418.88 5.312 383.68 17.344 348.8 47.744 323.712 84.736 318.208l234.432-34.816L421.12 72C437.504 37.952 472.832 16 511.104 16c38.4 0 73.664 21.952 89.984 56l101.952 211.392 234.432 34.816c36.928 5.504 67.456 30.592 79.488 65.344 12.032 35.264 3.136 73.536-23.296 99.968l-172.416 172.096 39.936 238.72c6.272 36.736-9.856 74.496-41.088 96C803.072 1001.856 783.36 1008 762.88 1008M511.104 821.888c4.992 0 9.856 1.28 14.336 3.648l218.176 117.504c13.12 6.976 30.016 6.016 42.24-2.368 12.096-8.384 18.176-22.272 15.808-36.352l-42.496-254.016c-1.6-9.6 1.408-19.52 8.384-26.368l183.424-183.04c10.048-10.048 13.44-24.448 8.96-37.568-4.608-13.376-16.64-23.168-31.296-25.408L678.4 340.672c-9.856-1.472-18.368-7.744-22.72-16.768l-108.8-225.856C540.48 84.864 526.464 76.224 511.104 76.224c-15.296 0-29.312 8.576-35.712 21.824l-108.8 225.856C362.304 332.928 353.792 339.2 343.936 340.672L93.568 377.792c-14.464 2.176-26.688 12.224-31.36 25.536-4.48 13.056-1.024 27.456 9.024 37.504l183.296 183.04c6.976 6.848 10.048 16.768 8.512 26.368l-42.496 254.016c-2.496 14.144 3.712 28.032 15.808 36.48 12.096 8.256 28.928 9.28 42.304 2.112l218.112-117.376C501.312 823.104 506.24 821.888 511.104 821.888" fill="#FDBC00" p-id="2175"></path></svg>