<?xml version="1.0" standalone="no"?><!DOCTYPE svg PUBLIC "-//W3C//DTD SVG 1.1//EN" "http://www.w3.org/Graphics/SVG/1.1/DTD/svg11.dtd"><svg t="1694029919421" class="icon" viewBox="0 0 1024 1024" version="1.1" xmlns="http://www.w3.org/2000/svg" p-id="2482" xmlns:xlink="http://www.w3.org/1999/xlink" width="32" height="32"><path d="M1017.536 383.616c-12.096-34.88-42.496-59.968-79.488-65.344L703.36 283.328 601.472 71.68C585.088 37.696 549.824 15.68 511.36 15.68c-38.208 0-73.6 22.016-90.048 56L319.424 283.328 84.8 318.208C47.808 323.648 17.344 348.736 5.312 383.68c-12.032 35.2-3.072 73.408 23.424 99.84l172.48 172.16-40 238.784c-6.208 36.928 9.92 74.56 41.216 96.256 30.464 20.8 71.936 23.232 105.024 5.504l203.968-109.76 204.16 109.76c14.72 8 31.104 12.032 47.744 12.032 20.48 0 40.192-6.08 57.28-17.664 31.104-21.568 47.36-59.2 41.088-96l-40.064-238.912 172.608-172.16C1020.672 457.088 1029.632 418.816 1017.536 383.616zM62.336 403.264c1.728-5.12 4.864-9.408 8.576-13.248C67.2 393.792 64.064 398.144 62.336 403.264c-1.152 3.328-1.792 6.656-1.92 9.984C60.544 409.92 61.184 406.528 62.336 403.264zM220.672 904.576l42.56-254.144c0.768-4.8 0.448-9.664-0.96-14.336 1.408 4.608 1.728 9.472 1.024 14.208L220.672 904.576c-1.792 10.56 1.216 21.056 7.936 29.184C221.888 925.632 218.88 915.2 220.672 904.576zM951.488 440.832 768.064 624c-6.912 6.976-9.984 16.768-8.448 26.432l42.496 254.144c2.432 14.08-3.776 28.032-15.744 36.288-12.288 8.512-29.184 9.344-42.24 2.304l-218.368-117.504c-4.544-2.432-9.472-3.712-14.4-3.712L511.36 76.032c15.296 0 29.44 8.576 35.84 21.824l108.8 225.984c4.352 9.024 12.928 15.296 22.784 16.768l250.432 37.248c14.656 2.176 26.624 11.904 31.232 25.408C964.992 416.448 961.6 430.848 951.488 440.832z" fill="#F3B718" p-id="2483"></path></svg>